<?xml version="1.0" encoding="utf-8"?>
<!-- Generator: Adobe Illustrator 16.0.0, SVG Export Plug-In . SVG Version: 6.00 Build 0)  -->
<!DOCTYPE svg PUBLIC "-//W3C//DTD SVG 1.1//EN" "http://www.w3.org/Graphics/SVG/1.1/DTD/svg11.dtd">
<svg version="1.1" id="Layer_1" xmlns="http://www.w3.org/2000/svg" xmlns:xlink="http://www.w3.org/1999/xlink" x="0px" y="0px"
	 width="220px" height="220px" viewBox="0 0 220 220" enable-background="new 0 0 220 220" xml:space="preserve">
<g id="Layer_1_1_">
	<rect fill="#EEEEEE" width="220" height="220"/>
	<g enable-background="new    ">
		<path fill="#ABABAB" d="M139.266,161.434H80.733c-10.648,0-17.881-6.496-17.881-17.346c0-15.135,3.549-38.374,23.172-38.374
			c2.076,0,10.849,9.309,23.976,9.309c13.126,0,21.899-9.309,23.976-9.309c19.622,0,23.172,23.239,23.172,38.374
			C157.147,154.938,149.914,161.434,139.266,161.434z M110,110c-14.198,0-25.717-11.519-25.717-25.717S95.802,58.566,110,58.566
			c14.197,0,25.716,11.519,25.716,25.717S124.197,110,110,110z"/>
	</g>
</g>
<g id="Layer_2">
</g>
</svg>
