<?xml version="1.0" encoding="utf-8"?>
<!-- Generator: Adobe Illustrator 16.0.0, SVG Export Plug-In . SVG Version: 6.00 Build 0)  -->
<!DOCTYPE svg PUBLIC "-//W3C//DTD SVG 1.1//EN" "http://www.w3.org/Graphics/SVG/1.1/DTD/svg11.dtd">
<svg version="1.1" id="Layer_1" xmlns="http://www.w3.org/2000/svg" xmlns:xlink="http://www.w3.org/1999/xlink" x="0px" y="0px"
	 width="220px" height="220px" viewBox="0 0 220 220" enable-background="new 0 0 220 220" xml:space="preserve">
<g id="Layer_1_1_">
	<rect fill="#EEEEEE" width="220" height="220"/>
	<g enable-background="new    ">
		<path fill="#ABABAB" d="M69.282,161.434h-4.286c-8.237,0-15.002-6.764-15.002-15.002V90.713c0-8.238,6.765-15.002,15.002-15.002
			h4.286V161.434z M144.289,161.434H75.711V75.711h8.572V64.996c0-3.55,2.88-6.43,6.43-6.43h38.575c3.55,0,6.429,2.88,6.429,6.43
			v10.715h8.572V161.434z M127.145,75.711v-8.572H92.855v8.572H127.145z M170.006,146.432c0,8.238-6.764,15.002-15.001,15.002
			h-4.286V75.711h4.286c8.237,0,15.001,6.764,15.001,15.002V146.432z"/>
	</g>
</g>
<g id="Layer_2">
</g>
</svg>
