<?xml version="1.0" encoding="utf-8"?>
<!-- Generator: Adobe Illustrator 16.0.0, SVG Export Plug-In . SVG Version: 6.00 Build 0)  -->
<!DOCTYPE svg PUBLIC "-//W3C//DTD SVG 1.1//EN" "http://www.w3.org/Graphics/SVG/1.1/DTD/svg11.dtd">
<svg version="1.1" id="Layer_1" xmlns="http://www.w3.org/2000/svg" xmlns:xlink="http://www.w3.org/1999/xlink" x="0px" y="0px"
	 width="220px" height="220px" viewBox="0 0 220 220" enable-background="new 0 0 220 220" xml:space="preserve">
<g id="Layer_1_1_">
	<rect fill="#EEEEEE" width="220" height="220"/>
	<g enable-background="new    ">
		<path fill="#ABABAB" d="M156.679,132.033l-4.287,7.367c-2.344,4.085-7.635,5.491-11.719,3.147l-17.814-10.246v20.56
			c0,4.688-3.885,8.572-8.572,8.572h-8.572c-4.688,0-8.572-3.885-8.572-8.572v-20.56l-17.814,10.246
			c-4.085,2.344-9.376,0.938-11.72-3.147l-4.286-7.367c-2.344-4.085-0.938-9.376,3.147-11.72L84.283,110L66.469,99.687
			c-4.085-2.344-5.491-7.635-3.147-11.72l4.286-7.367c2.344-4.085,7.635-5.491,11.72-3.147l17.814,10.246v-20.56
			c0-4.688,3.884-8.572,8.572-8.572h8.572c4.688,0,8.572,3.885,8.572,8.572v20.56l17.814-10.246
			c4.084-2.344,9.375-0.938,11.719,3.147l4.287,7.367c2.344,4.085,0.938,9.376-3.148,11.72L135.716,110l17.814,10.313
			C157.616,122.657,159.022,127.948,156.679,132.033z"/>
	</g>
</g>
<g id="Layer_2">
</g>
</svg>
