<?xml version="1.0" encoding="utf-8"?>
<!-- Generator: Adobe Illustrator 16.0.0, SVG Export Plug-In . SVG Version: 6.00 Build 0)  -->
<!DOCTYPE svg PUBLIC "-//W3C//DTD SVG 1.1//EN" "http://www.w3.org/Graphics/SVG/1.1/DTD/svg11.dtd">
<svg version="1.1" id="Layer_1" xmlns="http://www.w3.org/2000/svg" xmlns:xlink="http://www.w3.org/1999/xlink" x="0px" y="0px"
	 width="220px" height="220px" viewBox="0 0 220 220" enable-background="new 0 0 220 220" xml:space="preserve">
<g id="Layer_1_1_">
	<rect fill="#EEEEEE" width="220" height="220"/>
	<g>
		<path fill="#ABABAB" d="M98.17,120.57l-0.14-3.641c-0.42-7.14,1.96-14.419,8.26-21.979c4.48-5.32,8.12-9.8,8.12-14.56
			c0-4.9-3.22-8.12-10.22-8.4c-4.62,0-10.22,1.68-13.86,4.2l-4.76-15.26c5.04-2.94,13.44-5.74,23.38-5.74
			c18.48,0,26.88,10.22,26.88,21.84c0,10.64-6.58,17.64-11.899,23.52c-5.181,5.74-7.28,11.2-7.141,17.5v2.521H98.17z M94.53,139.89
			c0-7.42,5.18-12.739,12.46-12.739c7.561,0,12.46,5.319,12.601,12.739c0,7.28-5.04,12.74-12.601,12.74
			C99.57,152.63,94.53,147.17,94.53,139.89z"/>
	</g>
</g>
<g id="Layer_2">
</g>
</svg>
