<?xml version="1.0" encoding="utf-8"?>
<!-- Generator: Adobe Illustrator 16.0.0, SVG Export Plug-In . SVG Version: 6.00 Build 0)  -->
<!DOCTYPE svg PUBLIC "-//W3C//DTD SVG 1.1//EN" "http://www.w3.org/Graphics/SVG/1.1/DTD/svg11.dtd">
<svg version="1.1" id="Layer_1" xmlns="http://www.w3.org/2000/svg" xmlns:xlink="http://www.w3.org/1999/xlink" x="0px" y="0px"
	 width="220px" height="220px" viewBox="0 0 220 220" enable-background="new 0 0 220 220" xml:space="preserve">
<g id="Layer_1_1_">
	<rect fill="#EEEEEE" width="220" height="220"/>
	<g enable-background="new    ">
		<path fill="#ABABAB" d="M174.292,75.711v8.572h-8.572c0,2.344-2.076,4.286-4.621,4.286H58.901c-2.545,0-4.621-1.942-4.621-4.286
			h-8.572v-8.572L110,49.994L174.292,75.711z M174.292,161.434v8.572H45.708v-8.572c0-2.344,2.076-4.286,4.621-4.286h119.342
			C172.216,157.147,174.292,159.09,174.292,161.434z M79.997,92.855v51.434h8.572V92.855h17.145v51.434h8.572V92.855h17.145v51.434
			h8.572V92.855h17.145v51.434h3.951c2.545,0,4.621,1.942,4.621,4.286v4.286H54.28v-4.286c0-2.344,2.076-4.286,4.621-4.286h3.951
			V92.855H79.997z"/>
	</g>
</g>
<g id="Layer_2">
</g>
</svg>
