<?xml version="1.0" encoding="utf-8"?>
<!-- Generator: Adobe Illustrator 16.0.0, SVG Export Plug-In . SVG Version: 6.00 Build 0)  -->
<!DOCTYPE svg PUBLIC "-//W3C//DTD SVG 1.1//EN" "http://www.w3.org/Graphics/SVG/1.1/DTD/svg11.dtd">
<svg version="1.1" id="Layer_1" xmlns="http://www.w3.org/2000/svg" xmlns:xlink="http://www.w3.org/1999/xlink" x="0px" y="0px"
	 width="220px" height="220px" viewBox="0 0 220 220" enable-background="new 0 0 220 220" xml:space="preserve">
<g id="Layer_1_1_">
	<rect fill="#EEEEEE" width="220" height="220"/>
	<g>
		<g>
			<path fill="#ABABAB" d="M137.467,134.266c-6.379,9.36-13.819,18.633-20.546,25.583c-2.354,2.432-4.564,4.527-6.61,6.27
				c20.076-0.383,38.938-11.332,28.559-29.647C138.407,135.712,137.938,134.979,137.467,134.266z"/>
			<path fill="#ABABAB" d="M92.735,143.698c0-4.627,3.75-8.379,8.38-8.379c0.606,0,1.198,0.064,1.771,0.188
				c3.251-6.066,7.012-12.312,11.016-18.269c3.117-4.634,6.008-8.524,8.697-11.708c-0.459-4.684-0.125-10.258,1.326-17.243
				c7.333-35.263-52.708-59.959-70.304-2.98c-10.894,35.192,3.352,61.588,35.192,76.671c1.088,0.507,2.215,0.964,3.371,1.374
				c0.295-3.352,1.532-7.734,3.701-13.109C93.967,148.708,92.735,146.348,92.735,143.698z M64.323,102.894
				c0-4.629,3.752-8.381,8.38-8.381c4.627,0,8.38,3.752,8.38,8.381c0,4.626-3.752,8.379-8.38,8.379
				C68.075,111.273,64.323,107.52,64.323,102.894z M79.826,135.319c-4.63,0-8.381-3.752-8.381-8.38c0-4.629,3.75-8.381,8.381-8.381
				c4.627,0,8.38,3.752,8.38,8.381C88.206,131.567,84.453,135.319,79.826,135.319z M86.745,73.986
				c0-5.897,4.78-10.678,10.678-10.678c5.896,0,10.675,4.781,10.675,10.678c0,5.896-4.779,10.676-10.675,10.676
				C91.525,84.662,86.745,79.88,86.745,73.986z"/>
			<path fill="#ABABAB" d="M138.632,105.292c-0.001-0.001-0.001-0.001-0.003-0.001c-2.099-1.346-3.813-3.072-5.091-5.031
				c-4.184,2.879-9.495,8.714-16.482,19.104c-14.299,21.257-24.865,45.569-19.907,48.818c0.374,0.243,0.826,0.362,1.347,0.362
				c6.392,0,23.292-17.764,36.511-37.418c7.254-10.782,10.633-18.021,11.556-22.959c-1.436-0.202-2.927-0.583-4.478-1.156
				C140.871,106.56,139.709,105.982,138.632,105.292z"/>
			<path fill="#ABABAB" d="M169.938,70.972c-0.275-1.265-1.42-2.153-2.713-2.102c-10.35,0.386-18.621,2.399-24.584,5.983
				c-6.781,4.077-8.871,9.107-9.43,12.609c-0.429,2.679-0.078,5.352,0.906,7.785c1.63,4.036,5.001,7.411,9.458,9.056
				c2.336,0.862,4.44,1.283,6.438,1.283l0,0c0.303,0,0.603-0.012,0.901-0.031c2.267-0.15,4.426-0.867,6.433-2.14
				c5.977-3.791,5.474-10.021,5.03-15.518c-0.552-6.842-0.558-11.172,5.972-13.882C169.546,73.518,170.215,72.237,169.938,70.972z"
				/>
		</g>
	</g>
</g>
<g id="Layer_2">
</g>
</svg>
