<?xml version="1.0" encoding="utf-8"?>
<!-- Generator: Adobe Illustrator 16.0.0, SVG Export Plug-In . SVG Version: 6.00 Build 0)  -->
<!DOCTYPE svg PUBLIC "-//W3C//DTD SVG 1.1//EN" "http://www.w3.org/Graphics/SVG/1.1/DTD/svg11.dtd">
<svg version="1.1" id="Layer_1" xmlns="http://www.w3.org/2000/svg" xmlns:xlink="http://www.w3.org/1999/xlink" x="0px" y="0px"
	 width="220px" height="220px" viewBox="0 0 220 220" enable-background="new 0 0 220 220" xml:space="preserve">
<g id="Layer_1_1_">
	<rect fill="#EEEEEE" width="220" height="220"/>
	<g enable-background="new    ">
		<path fill="#ABABAB" d="M165.72,161.434c0,4.688-3.884,8.572-8.572,8.572H62.853c-4.688,0-8.572-3.885-8.572-8.572V75.711
			c0-4.688,3.885-8.572,8.572-8.572h8.572v-6.43c0-5.893,4.822-10.715,10.716-10.715h4.286c5.894,0,10.715,4.822,10.715,10.715v6.43
			h25.717v-6.43c0-5.893,4.822-10.715,10.716-10.715h4.286c5.894,0,10.715,4.822,10.715,10.715v6.43h8.572
			c4.688,0,8.572,3.885,8.572,8.572V161.434z M157.147,161.434V92.855H62.853v68.578H157.147z M88.569,60.709
			c0-1.205-0.938-2.143-2.143-2.143h-4.286c-1.206,0-2.144,0.938-2.144,2.143v19.288c0,1.205,0.938,2.144,2.144,2.144h4.286
			c1.205,0,2.143-0.938,2.143-2.144V60.709z M107.255,148.843c-0.871,0.804-2.211,0.804-3.081,0l-19.288-19.287
			c-0.803-0.871-0.803-2.21,0-3.014l3.081-3.081c0.804-0.804,2.144-0.804,3.014,0l14.733,14.733l29.735-29.734
			c0.87-0.804,2.21-0.804,3.014,0l3.081,3.08c0.803,0.804,0.803,2.144,0,3.014L107.255,148.843z M140.003,60.709
			c0-1.205-0.938-2.143-2.143-2.143h-4.286c-1.206,0-2.144,0.938-2.144,2.143v19.288c0,1.205,0.938,2.144,2.144,2.144h4.286
			c1.205,0,2.143-0.938,2.143-2.144V60.709z"/>
	</g>
</g>
<g id="Layer_2">
</g>
</svg>
