<?xml version="1.0" encoding="utf-8"?>
<!-- Generator: Adobe Illustrator 16.0.0, SVG Export Plug-In . SVG Version: 6.00 Build 0)  -->
<!DOCTYPE svg PUBLIC "-//W3C//DTD SVG 1.1//EN" "http://www.w3.org/Graphics/SVG/1.1/DTD/svg11.dtd">
<svg version="1.1" id="Layer_1" xmlns="http://www.w3.org/2000/svg" xmlns:xlink="http://www.w3.org/1999/xlink" x="0px" y="0px"
	 width="220px" height="220px" viewBox="0 0 220 220" enable-background="new 0 0 220 220" xml:space="preserve">
<g id="Layer_1_1_">
	<rect fill="#EEEEEE" width="220" height="220"/>
	<g enable-background="new    ">
		<path fill="#ABABAB" d="M142.08,104.843l-24.378,51.836c-1.406,2.946-4.487,4.755-7.702,4.755s-6.295-1.809-7.635-4.755
			l-24.444-51.836c-1.741-3.683-2.21-7.902-2.21-11.987c0-18.953,15.337-34.289,34.289-34.289c18.953,0,34.289,15.336,34.289,34.289
			C144.289,96.94,143.82,101.16,142.08,104.843z M110,75.711c-9.442,0-17.145,7.701-17.145,17.145S100.558,110,110,110
			c9.443,0,17.145-7.701,17.145-17.145S119.443,75.711,110,75.711z"/>
	</g>
</g>
<g id="Layer_2">
</g>
</svg>
